# xmcd
#
# Track frame offsets: 
#        150
#        25624
#        50821
#        84359
#        111276
#        141336
#        173350
#        202450
#        221914
#        254738
#        281718
#        311635
#
# Disc length: 4501 seconds
#
# Revision: 1
# Processed by: cddbd v1.5.2PL0 Copyright (c) Steve Scherf et al.
# Submitted via: ExactAudioCopy v1.0b6
#
DISCID=bd11930c
DTITLE=Carl A. Finlow - Electrilogy+
DYEAR=2003
DGENRE=Electronic
TTITLE0=Definition
TTITLE1=Conflict
TTITLE2=Hardwired
TTITLE3=Polygon Girl
TTITLE4=Anomaly
TTITLE5=Odyssey
TTITLE6=Floating Point
TTITLE7=Equilibrium
TTITLE8=Reconcile
TTITLE9=Night Owl
TTITLE10=Wafer Thin
TTITLE11=Out Of Time
EXTD=
EXTT0=
EXTT1=
EXTT2=
EXTT3=
EXTT4=
EXTT5=
EXTT6=
EXTT7=
EXTT8=
EXTT9=
EXTT10=
EXTT11=
PLAYORDER=
